<svg width="26" height="26" viewBox="0 0 26 26"  xmlns="http://www.w3.org/2000/svg">
<path d="M13.0052 6.32422C9.31857 6.32422 6.33398 9.31205 6.33398 12.9954C6.33398 16.682 9.32182 19.6666 13.0052 19.6666C16.6917 19.6666 19.6763 16.6787 19.6763 12.9954C19.6763 9.3088 16.6885 6.32422 13.0052 6.32422ZM13.0052 17.3255C10.6121 17.3255 8.67507 15.3874 8.67507 12.9954C8.67507 10.6034 10.6132 8.6653 13.0052 8.6653C15.3972 8.6653 17.3352 10.6034 17.3352 12.9954C17.3363 15.3874 15.3982 17.3255 13.0052 17.3255Z" />
<path d="M18.3606 0.0831337C15.9686 -0.0284496 10.0438 -0.0230329 7.64966 0.0831337C5.54583 0.181717 3.69008 0.6898 2.194 2.18588C-0.306337 4.68622 0.0132462 8.05538 0.0132462 12.9965C0.0132462 18.0535 -0.26842 21.3446 2.194 23.807C4.70408 26.316 8.122 25.9878 13.0046 25.9878C18.0139 25.9878 19.7429 25.991 21.5142 25.3053C23.9224 24.3704 25.7402 22.2178 25.9179 18.3514C26.0306 15.9583 26.0241 10.0346 25.9179 7.64047C25.7034 3.07638 23.254 0.308467 18.3606 0.0831337ZM22.1468 22.1528C20.5077 23.7919 18.2338 23.6456 12.9732 23.6456C7.5565 23.6456 5.38441 23.7258 3.7995 22.1365C1.97408 20.3198 2.3045 17.4024 2.3045 12.9791C2.3045 6.99372 1.69025 2.68313 7.69733 2.37547C9.0775 2.32672 9.48375 2.31047 12.958 2.31047L13.0067 2.34297C18.7798 2.34297 23.3092 1.73847 23.5812 7.74447C23.6429 9.11488 23.657 9.52655 23.657 12.9954C23.6559 18.3492 23.7577 20.5343 22.1468 22.1528Z" />
<path d="M19.9398 7.62027C20.8007 7.62027 21.4987 6.92232 21.4987 6.06136C21.4987 5.20039 20.8007 4.50244 19.9398 4.50244C19.0788 4.50244 18.3809 5.20039 18.3809 6.06136C18.3809 6.92232 19.0788 7.62027 19.9398 7.62027Z" />
</svg>
