<svg width="88" height="31" viewBox="0 0 88 31" fill="none" xmlns="http://www.w3.org/2000/svg">
<path d="M72.765 1.42895e-05C69.283 -0.00474444 65.9037 1.1792 63.186 3.35601C60.4615 1.18201 57.0786 -0.000746225 53.593 0.00201429C50.1074 -0.000984919 46.7244 1.1818 44 3.35601C41.2756 1.18259 37.8931 0.000196716 34.408 0.00301429C30.915 0.00301429 27.528 1.18701 24.816 3.35601C22.5738 1.56618 19.8746 0.440917 17.025 0.108014C14.1706 -0.227557 11.2793 0.24106 8.677 1.46101C6.08816 2.67234 3.89474 4.59119 2.35 6.99601C0.816885 9.38528 0.00129909 12.1642 0 15.003C0 17.837 0.815 20.613 2.35 23.011C3.89488 25.4155 6.08829 27.334 8.677 28.545C11.2793 29.765 14.1706 30.2336 17.025 29.898C19.8746 29.5651 22.5738 28.4398 24.816 26.65C27.5404 28.8234 30.9229 30.0058 34.408 30.003C37.901 30.003 41.288 28.819 44 26.65C46.7248 28.8234 50.1076 30.0057 53.593 30.003C57.0785 30.0061 60.4614 28.8237 63.186 26.65C65.0852 28.1655 67.3177 29.2075 69.699 29.69C72.086 30.176 74.556 30.09 76.902 29.438C79.2416 28.7903 81.3933 27.5947 83.179 25.95C84.9535 24.3159 86.3072 22.2775 87.125 20.008C87.9385 17.7472 88.189 15.3224 87.855 12.943C87.5189 10.5597 86.6096 8.29355 85.205 6.33901C83.7913 4.37319 81.9273 2.7746 79.769 1.67701C77.5996 0.572534 75.1994 -0.00216591 72.765 1.42895e-05ZM63.186 21.742C61.758 19.7817 60.9879 17.4193 60.986 14.994C60.986 12.574 61.756 10.214 63.186 8.24501C64.6119 10.2065 65.3806 12.569 65.382 14.994C65.382 17.414 64.615 19.774 63.186 21.742ZM44 21.742C42.5739 19.7809 41.8048 17.4188 41.803 14.994C41.803 12.574 42.571 10.214 44 8.24501C45.4278 10.2058 46.1976 12.5685 46.199 14.994C46.199 17.414 45.429 19.774 43.999 21.742H44ZM24.816 21.742C23.3902 19.7808 22.6215 17.4187 22.62 14.994C22.62 12.574 23.388 10.214 24.816 8.24501C26.2441 10.2057 27.0143 12.5684 27.016 14.994C27.016 17.414 26.246 19.774 24.816 21.742ZM3.441 14.994C3.44356 12.8242 4.06071 10.6995 5.221 8.86601C6.38994 7.02109 8.05104 5.53941 10.017 4.58801C11.9917 3.63118 14.192 3.23723 16.3761 3.44946C18.5601 3.66169 20.6434 4.47188 22.397 5.79101C20.3187 8.41196 19.1865 11.658 19.184 15.003C19.184 18.34 20.315 21.583 22.397 24.215C20.6435 25.5342 18.5602 26.3445 16.3761 26.5567C14.192 26.769 11.9917 26.375 10.017 25.418C8.0514 24.4665 6.39067 22.9848 5.222 21.14C4.06166 19.3065 3.4445 17.1818 3.442 15.012V14.994H3.441ZM27.235 24.196C29.3131 21.5753 30.4453 18.3296 30.448 14.985C30.448 11.647 29.318 8.40501 27.235 5.77301C29.3014 4.21436 31.8197 3.37211 34.408 3.37401C37.002 3.37401 39.523 4.21701 41.581 5.77301C39.5027 8.39396 38.3705 11.64 38.368 14.985C38.368 18.322 39.498 21.564 41.581 24.196C39.5147 25.755 36.9964 26.5976 34.408 26.596C31.814 26.596 29.293 25.752 27.235 24.196ZM46.422 24.196C48.5001 21.5753 49.6323 18.3296 49.635 14.985C49.635 11.647 48.504 8.40501 46.422 5.77301C48.4881 4.21457 51.006 3.37233 53.594 3.37401C56.188 3.37401 58.709 4.21701 60.767 5.77301C58.6887 8.39396 57.5565 11.64 57.554 14.985C57.554 18.322 58.684 21.564 60.767 24.196C58.7007 25.755 56.1824 26.5976 53.594 26.596C51.001 26.596 48.48 25.752 46.422 24.196ZM72.778 26.596C70.1935 26.5982 67.6791 25.7554 65.618 24.196C67.6958 21.5752 68.8276 18.3295 68.83 14.985C68.83 11.647 67.7 8.40501 65.618 5.77301C67.1088 4.64741 68.8441 3.88954 70.683 3.56101C72.5258 3.23106 74.4204 3.33861 76.214 3.87501C78.0016 4.40873 79.6375 5.35793 80.988 6.64501C82.3302 7.92398 83.3459 9.50625 83.95 11.259C84.551 13.007 84.72 14.871 84.445 16.696C84.1674 18.5251 83.4532 20.2604 82.363 21.755C81.2656 23.2586 79.8264 24.4795 78.164 25.317C76.4938 26.1596 74.6487 26.5974 72.778 26.595V26.596Z" fill="white"/>
</svg>
