<svg width="22" height="20" viewBox="0 0 22 20" fill="none" xmlns="http://www.w3.org/2000/svg">
<path d="M21.2335 14.5112L18.3776 11.6624C18.1872 11.4725 17.9143 11.3775 17.5589 11.3775C17.2162 11.3775 16.956 11.4662 16.7783 11.6434L15.3314 12.8779C15.1283 12.9032 14.7983 12.783 14.3413 12.5171C13.5544 12.0359 12.5517 11.1813 11.3332 9.95311L10.8572 9.47831C9.71487 8.35143 8.89619 7.42082 8.40118 6.68645C8.09656 6.2433 7.9252 5.9141 7.88713 5.69885L8.85812 4.74924C9.0485 4.55932 9.1437 4.2871 9.1437 3.93258C9.1437 3.57806 9.0485 3.30583 8.85812 3.11591L6.00227 0.267078C5.81188 0.0771558 5.53898 -0.0114745 5.18359 0.00118701C4.8282 0.00118701 4.5553 0.096148 4.36491 0.28607L0.5 4.35041L0.69039 4.65428C1.10925 5.35066 1.73753 6.23697 2.57525 7.31319C4.2126 9.44032 6.02765 11.4345 8.0204 13.2957C10.8001 15.904 13.7448 18.0818 16.8545 19.8291L17.1591 20L21.2335 16.1446C21.4112 15.9547 21.5 15.6824 21.5 15.3279C21.5 14.9734 21.4112 14.7012 21.2335 14.5112ZM20.5671 15.4609L17.0068 18.8225C14.316 17.2778 11.7393 15.3912 9.27697 13.1628C7.42384 11.4915 5.71034 9.68722 4.13645 7.75001C3.1718 6.5725 2.35947 5.47728 1.69946 4.46436L5.01224 0.96979C5.05032 0.957128 5.10743 0.950797 5.18359 0.950797C5.25975 0.938136 5.30417 0.938136 5.31686 0.950797L8.15367 3.76165C8.16636 3.79963 8.17271 3.85661 8.17271 3.93258C8.1854 3.99588 8.1854 4.0402 8.17271 4.06552L7.27788 4.97715C7.11287 5.07844 7.01133 5.23038 6.97326 5.43296C6.88441 5.78748 7.01133 6.24963 7.35403 6.81939C7.83636 7.65505 8.77561 8.76926 10.1718 10.162L10.6478 10.6368C11.7647 11.7384 12.723 12.5614 13.5227 13.1058C14.335 13.6376 14.976 13.8782 15.4456 13.8275C15.6741 13.8022 15.8581 13.7199 15.9977 13.5806L17.3876 12.3651C17.4257 12.3525 17.4764 12.3461 17.5399 12.3461C17.616 12.3335 17.6668 12.3335 17.6922 12.3461L20.529 15.157C20.5417 15.195 20.5544 15.2519 20.5671 15.3279V15.4609Z" fill="white"/>
</svg>
