<?xml version="1.0" encoding="utf-8"?><svg width="26" height="26" xmlns="http://www.w3.org/2000/svg" viewBox="0 0 26 26"><path d="M13.005 6.324a6.67 6.67 0 00-6.671 6.671 6.67 6.67 0 006.671 6.672 6.67 6.67 0 006.671-6.672 6.67 6.67 0 00-6.67-6.67zm0 11.002a4.33 4.33 0 114.33-4.33 4.328 4.328 0 01-4.33 4.33z"/><path d="M18.36.083c-2.391-.111-8.316-.106-10.71 0C5.546.182 3.69.69 2.194 2.186c-2.5 2.5-2.18 5.87-2.18 10.81 0 5.057-.282 8.349 2.18 10.811 2.51 2.509 5.928 2.18 10.81 2.18 5.01 0 6.739.004 8.51-.682 2.408-.935 4.226-3.087 4.404-6.954.113-2.393.106-8.316 0-10.71C25.703 3.075 23.254.307 18.36.082zm3.787 22.07c-1.64 1.639-3.913 1.493-9.174 1.493-5.417 0-7.589.08-9.174-1.51-1.825-1.816-1.494-4.734-1.494-9.157 0-5.985-.615-10.296 5.392-10.604 1.38-.048 1.787-.065 5.261-.065l.049.033c5.773 0 10.302-.605 10.574 5.401.062 1.37.076 1.783.076 5.251-.001 5.354.1 7.54-1.51 9.158z"/><path d="M19.94 7.62a1.559 1.559 0 100-3.118 1.559 1.559 0 000 3.118z"/></svg>