<?xml version="1.0" encoding="utf-8"?><svg width="88" height="31" fill="none" xmlns="http://www.w3.org/2000/svg" viewBox="0 0 88 31"><path d="M72.765 0a15.29 15.29 0 00-9.579 3.356A15.36 15.36 0 0053.593.002 15.358 15.358 0 0044 3.356 15.361 15.361 0 0034.408.003c-3.493 0-6.88 1.184-9.592 3.353A15.342 15.342 0 0017.025.108a15.424 15.424 0 00-8.348 1.353A15.152 15.152 0 002.35 6.996 14.84 14.84 0 000 15.003c0 2.834.815 5.61 2.35 8.008a15.151 15.151 0 006.327 5.534 15.423 15.423 0 008.348 1.353 15.342 15.342 0 007.791-3.248 15.361 15.361 0 009.592 3.353c3.493 0 6.88-1.184 9.592-3.353a15.365 15.365 0 009.593 3.353 15.36 15.36 0 009.593-3.353 15.32 15.32 0 006.513 3.04c2.387.486 4.857.4 7.203-.252a15.285 15.285 0 006.277-3.488 14.982 14.982 0 003.946-5.942 14.793 14.793 0 00.73-7.065 14.876 14.876 0 00-2.65-6.604 15.16 15.16 0 00-5.436-4.662A15.407 15.407 0 0072.765 0zm-9.579 21.742a11.476 11.476 0 01-2.2-6.748c0-2.42.77-4.78 2.2-6.749a11.49 11.49 0 012.196 6.749c0 2.42-.767 4.78-2.196 6.748zm-19.186 0a11.488 11.488 0 01-2.197-6.748c0-2.42.768-4.78 2.197-6.749a11.476 11.476 0 012.199 6.749c0 2.42-.77 4.78-2.2 6.748H44zm-19.184 0a11.488 11.488 0 01-2.196-6.748c0-2.42.768-4.78 2.196-6.749a11.477 11.477 0 012.2 6.749c0 2.42-.77 4.78-2.2 6.748zM3.441 14.994c.003-2.17.62-4.294 1.78-6.128a11.723 11.723 0 014.796-4.278 11.936 11.936 0 0112.38 1.203 14.844 14.844 0 00-3.213 9.212c0 3.337 1.131 6.58 3.213 9.212a11.935 11.935 0 01-12.38 1.203 11.722 11.722 0 01-4.795-4.278 11.484 11.484 0 01-1.78-6.128v-.018h-.001zm23.794 9.202a14.844 14.844 0 003.213-9.211c0-3.338-1.13-6.58-3.213-9.212a11.897 11.897 0 017.173-2.399c2.594 0 5.115.843 7.173 2.399a14.844 14.844 0 00-3.213 9.212c0 3.337 1.13 6.579 3.213 9.211a11.897 11.897 0 01-7.173 2.4c-2.594 0-5.115-.844-7.173-2.4zm19.187 0a14.844 14.844 0 003.213-9.211c0-3.338-1.131-6.58-3.213-9.212a11.897 11.897 0 017.172-2.399c2.594 0 5.115.843 7.173 2.399a14.844 14.844 0 00-3.213 9.212c0 3.337 1.13 6.579 3.213 9.211a11.897 11.897 0 01-7.173 2.4c-2.593 0-5.114-.844-7.172-2.4zm26.356 2.4a11.85 11.85 0 01-7.16-2.4 14.844 14.844 0 003.212-9.211c0-3.338-1.13-6.58-3.212-9.212a11.87 11.87 0 015.065-2.212 11.952 11.952 0 015.531.314 11.822 11.822 0 014.774 2.77 11.59 11.59 0 012.962 4.614 11.463 11.463 0 01-1.587 10.496 11.735 11.735 0 01-4.199 3.562 11.924 11.924 0 01-5.386 1.278v.001z" fill="#fff"/></svg>