<?xml version="1.0" encoding="utf-8"?><svg width="22" height="20" fill="none" xmlns="http://www.w3.org/2000/svg" viewBox="0 0 22 20"><path d="M21.233 14.511l-2.855-2.849c-.19-.19-.464-.285-.82-.285-.342 0-.602.09-.78.266l-1.447 1.235c-.203.025-.533-.095-.99-.36-.787-.482-1.79-1.337-3.008-2.565l-.476-.475c-1.142-1.127-1.96-2.057-2.456-2.792-.304-.443-.476-.772-.514-.987l.971-.95c.19-.19.286-.462.286-.816 0-.355-.095-.627-.286-.817L6.002.267c-.19-.19-.463-.278-.818-.266-.356 0-.629.095-.82.285L.5 4.35l.19.304c.42.697 1.048 1.583 1.885 2.66a49.452 49.452 0 005.445 5.982c2.78 2.608 5.725 4.786 8.835 6.533l.304.171 4.075-3.855c.177-.19.266-.463.266-.817 0-.355-.089-.627-.267-.817zm-.666.95l-3.56 3.362c-2.691-1.545-5.268-3.432-7.73-5.66a48.243 48.243 0 01-5.14-5.413 37.944 37.944 0 01-2.438-3.286L5.012.97a.579.579 0 01.172-.02c.076-.012.12-.012.133 0l2.837 2.812a.575.575 0 01.019.17c.012.064.012.108 0 .134l-.895.911a.65.65 0 00-.305.456c-.089.354.038.817.381 1.386.482.836 1.422 1.95 2.818 3.343l.476.475c1.117 1.101 2.075 1.924 2.875 2.469.812.532 1.453.772 1.923.722a.893.893 0 00.552-.247l1.39-1.216a.498.498 0 01.152-.019c.076-.012.127-.012.152 0l2.837 2.811c.013.038.025.095.038.17v.134z" fill="#fff"/></svg>