<?xml version="1.0" encoding="utf-8"?><svg viewBox="0 0 1920 40" xmlns="http://www.w3.org/2000/svg" xmlns:xlink="http://www.w3.org/1999/xlink"><style>:root>svg{display:none}:root>svg:target{display:block}</style><svg fill="none" viewBox="0 0 14 14" id="checked" xmlns="http://www.w3.org/2000/svg"><path d="M1 8l4.5 4.5L13 1" stroke="#fff"/></svg><svg fill="none" viewBox="0 0 20 20" id="clock" xmlns="http://www.w3.org/2000/svg"><path d="M10 18.333a8.333 8.333 0 100-16.666 8.333 8.333 0 000 16.666z" stroke="#fff" stroke-linecap="round" stroke-linejoin="round"/><path d="M10 5v5l3.333 1.667" stroke="#fff" stroke-linecap="round" stroke-linejoin="round"/></svg><svg viewBox="0 0 26 26" id="fb" xmlns="http://www.w3.org/2000/svg"><path d="M19.752 4.316h-2.447c-1.92 0-2.29.913-2.29 2.251v2.95h4.576l-.002 4.623h-4.575V26h-4.773V14.14H6.25V9.518h3.99V6.11c0-3.956 2.417-6.11 5.946-6.11l3.566.006v4.31z"/></svg><svg viewBox="0 0 26 26" id="inst" xmlns="http://www.w3.org/2000/svg"><path d="M13.005 6.324a6.67 6.67 0 00-6.671 6.671 6.67 6.67 0 006.671 6.672 6.67 6.67 0 006.671-6.672 6.67 6.67 0 00-6.67-6.67zm0 11.002a4.33 4.33 0 114.33-4.33 4.328 4.328 0 01-4.33 4.33z"/><path d="M18.36.083c-2.391-.111-8.316-.106-10.71 0C5.546.182 3.69.69 2.194 2.186c-2.5 2.5-2.18 5.87-2.18 10.81 0 5.057-.282 8.349 2.18 10.811 2.51 2.509 5.928 2.18 10.81 2.18 5.01 0 6.739.004 8.51-.682 2.408-.935 4.226-3.087 4.404-6.954.113-2.393.106-8.316 0-10.71C25.703 3.075 23.254.307 18.36.082zm3.787 22.07c-1.64 1.639-3.913 1.493-9.174 1.493-5.417 0-7.589.08-9.174-1.51-1.825-1.816-1.494-4.734-1.494-9.157 0-5.985-.615-10.296 5.392-10.604 1.38-.048 1.787-.065 5.261-.065l.049.033c5.773 0 10.302-.605 10.574 5.401.062 1.37.076 1.783.076 5.251-.001 5.354.1 7.54-1.51 9.158z"/><path d="M19.94 7.62a1.559 1.559 0 100-3.118 1.559 1.559 0 000 3.118z"/></svg><svg fill="none" viewBox="0 0 1920 40" id="line" xmlns="http://www.w3.org/2000/svg"><path stroke="#4D4D4D" d="M1070.5 0v40M1920 .5H0"/></svg><svg fill="none" viewBox="0 0 88 31" id="logo" xmlns="http://www.w3.org/2000/svg"><path d="M72.765 0a15.29 15.29 0 00-9.579 3.356A15.36 15.36 0 0053.593.002 15.358 15.358 0 0044 3.356 15.361 15.361 0 0034.408.003c-3.493 0-6.88 1.184-9.592 3.353A15.342 15.342 0 0017.025.108a15.424 15.424 0 00-8.348 1.353A15.152 15.152 0 002.35 6.996 14.84 14.84 0 000 15.003c0 2.834.815 5.61 2.35 8.008a15.151 15.151 0 006.327 5.534 15.423 15.423 0 008.348 1.353 15.342 15.342 0 007.791-3.248 15.361 15.361 0 009.592 3.353c3.493 0 6.88-1.184 9.592-3.353a15.365 15.365 0 009.593 3.353 15.36 15.36 0 009.593-3.353 15.32 15.32 0 006.513 3.04c2.387.486 4.857.4 7.203-.252a15.285 15.285 0 006.277-3.488 14.982 14.982 0 003.946-5.942 14.793 14.793 0 00.73-7.065 14.876 14.876 0 00-2.65-6.604 15.16 15.16 0 00-5.436-4.662A15.407 15.407 0 0072.765 0zm-9.579 21.742a11.476 11.476 0 01-2.2-6.748c0-2.42.77-4.78 2.2-6.749a11.49 11.49 0 012.196 6.749c0 2.42-.767 4.78-2.196 6.748zm-19.186 0a11.488 11.488 0 01-2.197-6.748c0-2.42.768-4.78 2.197-6.749a11.476 11.476 0 012.199 6.749c0 2.42-.77 4.78-2.2 6.748H44zm-19.184 0a11.488 11.488 0 01-2.196-6.748c0-2.42.768-4.78 2.196-6.749a11.477 11.477 0 012.2 6.749c0 2.42-.77 4.78-2.2 6.748zM3.441 14.994c.003-2.17.62-4.294 1.78-6.128a11.723 11.723 0 014.796-4.278 11.936 11.936 0 0112.38 1.203 14.844 14.844 0 00-3.213 9.212c0 3.337 1.131 6.58 3.213 9.212a11.935 11.935 0 01-12.38 1.203 11.722 11.722 0 01-4.795-4.278 11.484 11.484 0 01-1.78-6.128v-.018h-.001zm23.794 9.202a14.844 14.844 0 003.213-9.211c0-3.338-1.13-6.58-3.213-9.212a11.897 11.897 0 017.173-2.399c2.594 0 5.115.843 7.173 2.399a14.844 14.844 0 00-3.213 9.212c0 3.337 1.13 6.579 3.213 9.211a11.897 11.897 0 01-7.173 2.4c-2.594 0-5.115-.844-7.173-2.4zm19.187 0a14.844 14.844 0 003.213-9.211c0-3.338-1.131-6.58-3.213-9.212a11.897 11.897 0 017.172-2.399c2.594 0 5.115.843 7.173 2.399a14.844 14.844 0 00-3.213 9.212c0 3.337 1.13 6.579 3.213 9.211a11.897 11.897 0 01-7.173 2.4c-2.593 0-5.114-.844-7.172-2.4zm26.356 2.4a11.85 11.85 0 01-7.16-2.4 14.844 14.844 0 003.212-9.211c0-3.338-1.13-6.58-3.212-9.212a11.87 11.87 0 015.065-2.212 11.952 11.952 0 015.531.314 11.822 11.822 0 014.774 2.77 11.59 11.59 0 012.962 4.614 11.463 11.463 0 01-1.587 10.496 11.735 11.735 0 01-4.199 3.562 11.924 11.924 0 01-5.386 1.278v.001z" fill="#fff"/></svg><svg fill="none" viewBox="0 0 22 20" id="phone" xmlns="http://www.w3.org/2000/svg"><path d="M21.233 14.511l-2.855-2.849c-.19-.19-.464-.285-.82-.285-.342 0-.602.09-.78.266l-1.447 1.235c-.203.025-.533-.095-.99-.36-.787-.482-1.79-1.337-3.008-2.565l-.476-.475c-1.142-1.127-1.96-2.057-2.456-2.792-.304-.443-.476-.772-.514-.987l.971-.95c.19-.19.286-.462.286-.816 0-.355-.095-.627-.286-.817L6.002.267c-.19-.19-.463-.278-.818-.266-.356 0-.629.095-.82.285L.5 4.35l.19.304c.42.697 1.048 1.583 1.885 2.66a49.452 49.452 0 005.445 5.982c2.78 2.608 5.725 4.786 8.835 6.533l.304.171 4.075-3.855c.177-.19.266-.463.266-.817 0-.355-.089-.627-.267-.817zm-.666.95l-3.56 3.362c-2.691-1.545-5.268-3.432-7.73-5.66a48.243 48.243 0 01-5.14-5.413 37.944 37.944 0 01-2.438-3.286L5.012.97a.579.579 0 01.172-.02c.076-.012.12-.012.133 0l2.837 2.812a.575.575 0 01.019.17c.012.064.012.108 0 .134l-.895.911a.65.65 0 00-.305.456c-.089.354.038.817.381 1.386.482.836 1.422 1.95 2.818 3.343l.476.475c1.117 1.101 2.075 1.924 2.875 2.469.812.532 1.453.772 1.923.722a.893.893 0 00.552-.247l1.39-1.216a.498.498 0 01.152-.019c.076-.012.127-.012.152 0l2.837 2.811c.013.038.025.095.038.17v.134z" fill="#fff"/></svg><svg fill="none" viewBox="0 0 20 20" id="pin" xmlns="http://www.w3.org/2000/svg"><path d="M17.5 8.333c0 5.834-7.5 10.834-7.5 10.834s-7.5-5-7.5-10.834a7.5 7.5 0 0115 0z" stroke="#fff" stroke-linecap="round" stroke-linejoin="round"/><path d="M10 10.833a2.5 2.5 0 100-5 2.5 2.5 0 000 5z" stroke="#fff" stroke-linecap="round" stroke-linejoin="round"/></svg></svg>